<mxfile host="app.diagrams.net" modified="2024-06-12T18:41:08.003Z" agent="Mozilla/5.0 (Macintosh; Intel Mac OS X 10_15_7) AppleWebKit/537.36 (KHTML, like Gecko) Chrome/125.0.0.0 Safari/537.36" version="24.5.4" etag="XrXKcKMm5jexpYzbZT8Y" type="github">
  <diagram name="Page-1" id="MCG0jAWutFKigLswCtp-">
    <mxGraphModel>
      <root>
        <mxCell id="0" />
        <mxCell id="1" parent="0" />
      </root>
    </mxGraphModel>
  </diagram>
</mxfile>
